<svg width="72" height="72" viewBox="0 0 72 72" fill="none" xmlns="http://www.w3.org/2000/svg">
<path d="M54 9H18V63H54V9Z" stroke="#B592FF" stroke-width="2" stroke-miterlimit="10" stroke-linejoin="round"/>
<path d="M49 38.5471C50.3807 38.5471 51.5 37.6348 51.5 36.5094C51.5 35.384 50.3807 34.4717 49 34.4717C47.6193 34.4717 46.5 35.384 46.5 36.5094C46.5 37.6348 47.6193 38.5471 49 38.5471Z" fill="#B592FF"/>
<path d="M49.5 41.6038H48.5C47.9477 41.6038 47.5 41.1561 47.5 40.6038V34.4529C47.5 33.9006 47.9477 33.4529 48.5 33.4529H49.5C50.0523 33.4529 50.5 33.9006 50.5 34.4529V40.6038C50.5 41.1561 50.0523 41.6038 49.5 41.6038Z" fill="#B592FF"/>
<path d="M48 14.0943H24V30.3962H48V14.0943Z" stroke="#B592FF" stroke-width="2" stroke-miterlimit="10" stroke-linejoin="round"/>
<path d="M48 45.6792H24V56.8867H48V45.6792Z" stroke="#B592FF" stroke-width="2" stroke-miterlimit="10" stroke-linejoin="round"/>
</svg>
