<svg width="72" height="72" viewBox="0 0 72 72" fill="none" xmlns="http://www.w3.org/2000/svg">
<path d="M45.815 44.8043C40.1152 49.5031 31.8848 49.5031 26.185 44.8043" stroke="#B592FF" stroke-width="2" stroke-linecap="round" stroke-linejoin="round"/>
<path d="M52.04 50.3656C49.8032 50.3657 47.9901 52.1791 47.9902 54.4158C47.9902 55.1567 48.1935 55.8835 48.578 56.5169L48.81 56.8591L56.0011 66.0771L63.2344 56.8023C64.5548 54.9981 64.1625 52.4651 62.3583 51.1447C60.5541 49.8243 58.0211 50.2166 56.7007 52.0208C56.5537 52.2216 56.4256 52.4356 56.3179 52.66C56.2336 52.8347 56.0236 52.9081 55.8488 52.8237C55.7773 52.7892 55.7196 52.7315 55.6851 52.66C55.0167 51.2541 53.5967 50.3603 52.04 50.3656Z" stroke="#B592FF" stroke-width="2" stroke-linecap="round" stroke-linejoin="round"/>
<path d="M7.04 32.3656C4.8032 32.3657 2.9901 34.1791 2.9902 36.4158C2.9902 37.1567 3.1935 37.8835 3.578 38.5169L3.81 38.8591L11.0011 48.0771L18.2344 38.8023C19.5548 36.9981 19.1625 34.4651 17.3583 33.1447C15.5541 31.8243 13.0211 32.2166 11.7007 34.0208C11.5537 34.2216 11.4256 34.4356 11.3179 34.6599C11.2336 34.8346 11.0236 34.908 10.8488 34.8236C10.7773 34.7891 10.7196 34.7314 10.6851 34.6599C10.0167 33.2541 8.5967 32.3603 7.04 32.3656Z" stroke="#B592FF" stroke-width="2" stroke-linecap="round" stroke-linejoin="round"/>
<path d="M44.04 5.3656C41.8032 5.3657 39.9901 7.1791 39.9902 9.4158C39.9902 10.1567 40.1935 10.8835 40.578 11.5169L40.81 11.8591L48.0011 21.0771L55.2344 11.8023C56.5548 9.9981 56.1625 7.4651 54.3583 6.1447C52.5541 4.8243 50.0211 5.2166 48.7007 7.0208C48.5537 7.2216 48.4256 7.4356 48.3179 7.66C48.2336 7.8347 48.0236 7.9081 47.8488 7.8237C47.7773 7.7892 47.7196 7.7315 47.6851 7.66C47.0167 6.2541 45.5967 5.3603 44.04 5.3656Z" stroke="#B592FF" stroke-width="2" stroke-linecap="round" stroke-linejoin="round"/>
<path d="M42.8076 57.9758C40.6563 58.6415 38.37 59 36 59C28.0609 59 21.0613 54.9776 16.928 48.8595" stroke="#B592FF" stroke-width="2" stroke-linecap="round" stroke-linejoin="round"/>
<path d="M53.7479 21.3699C57.029 25.3456 59 30.4426 59 36C59 39.6035 58.1713 43.0135 56.6941 46.0497" stroke="#B592FF" stroke-width="2" stroke-linecap="round" stroke-linejoin="round"/>
<path d="M14.7323 27.2273C18.1806 18.8766 26.404 13 36 13" stroke="#B592FF" stroke-width="2" stroke-linecap="round" stroke-linejoin="round"/>
<path d="M31.6941 32.4036C30.6343 30.0182 27.8414 28.9436 25.4561 30.0034C24.3864 30.4786 23.5312 31.3339 23.0559 32.4036" stroke="#B592FF" stroke-width="2" stroke-miterlimit="10" stroke-linecap="round"/>
<path d="M48.9441 32.4036C47.8843 30.0182 45.0914 28.9436 42.7061 30.0034C41.6364 30.4786 40.7812 31.3339 40.3059 32.4036" stroke="#B592FF" stroke-width="2" stroke-miterlimit="10" stroke-linecap="round"/>
</svg>
