<svg width="192" height="192" viewBox="0 0 192 192" fill="none" xmlns="http://www.w3.org/2000/svg">
<path fill-rule="evenodd" clip-rule="evenodd" d="M102.004 26.6516L172.164 62.6147C175.267 64.2054 176.494 68.0114 174.904 71.1156C173.823 73.2245 171.654 74.5509 169.284 74.5509H50.6239C47.1368 74.5509 44.3099 71.7233 44.3099 68.2353C44.3099 66.2269 45.2649 64.3383 46.8822 63.1481L95.7966 27.1517C97.6038 25.8218 100.007 25.6282 102.004 26.6516Z" fill="#07FFC2"/>
<path fill-rule="evenodd" clip-rule="evenodd" d="M22.5265 91.1392H83.2984C86.5685 91.1392 89.2195 93.7876 89.2195 97.0545V147.136C89.2195 150.621 86.3918 153.446 82.9036 153.446C81.3999 153.446 79.9455 152.91 78.802 151.935L18.9375 100.859C16.6166 98.8783 16.3419 95.3934 18.3241 93.0747C19.374 91.8465 20.9097 91.1392 22.5265 91.1392Z" fill="#07FFC2"/>
<path fill-rule="evenodd" clip-rule="evenodd" d="M111.716 91.1392H158.969C162.233 91.1392 164.878 93.7932 164.878 97.0671C164.878 98.3376 164.471 99.5745 163.717 100.595L116.465 164.6C114.522 167.231 110.822 167.784 108.2 165.835C106.695 164.717 105.808 162.95 105.808 161.072V97.0671C105.808 93.7932 108.453 91.1392 111.716 91.1392Z" fill="#07FFC2"/>
</svg>
